<?xml version="1.0" encoding="UTF-8"?>
<svg xmlns="http://www.w3.org/2000/svg" xmlns:xlink="http://www.w3.org/1999/xlink" width="59px" height="56px" viewBox="0 0 59 56" version="1.1">
    <!-- Generator: Sketch 52.6 (67491) - http://www.bohemiancoding.com/sketch -->
    <title>008 - Add Shopping Trolley</title>
    <desc>Created with Sketch.</desc>
    <g id="Page-1" stroke="none" stroke-width="1" fill="none" fill-rule="evenodd">
        <g id="008---Add-Shopping-Trolley">
            <circle id="Oval" fill="#95A5A5" cx="20" cy="51" r="4"/>
            <circle id="Oval" fill="#95A5A5" cx="48" cy="51" r="4"/>
            <path d="M58.35,15 L54.35,25 L53.55,27 L48.45,39.74 C48.1512796,40.5006042 47.4171611,41.0005984 46.6,41 L18.31,41 L17.92,41.14 L13.02,27 L12.33,25 L8.86,15 L58.35,15 Z" id="Path" fill="#BDC3C7"/>
            <path d="M58.85,13.74 L58.35,15 L8.86,15 L7.47,11 L57,11 C57.6616896,11.0026657 58.2792309,11.3324316 58.6495,11.8808303 C59.0197692,12.4292289 59.0948325,13.1252665 58.85,13.74 Z" id="Path" fill="#3B97D3"/>
            <path d="M39.03,41 L42.29,27 L53.55,27 L54.35,25 L42.76,25 L45.09,15 L43.04,15 L40.71,25 L26.29,25 L23.96,15 L21.91,15 L24.24,25 L13.382,25 L5.411,2.017 C4.99229998,0.809721181 3.85482308,0.000161937461 2.577,0 L1,0 C0.44771525,0 6.76353751e-17,0.44771525 0,1 C-6.76353751e-17,1.55228475 0.44771525,2 1,2 L2.577,2 C3.00297635,1.99986273 3.38227977,2.2695896 3.522,2.672 L19.009,47.328 C19.1485997,47.7300635 19.527391,47.9997115 19.953,48 L48,48 C48.5522847,48 49,47.5522847 49,47 C49,46.4477153 48.5522847,46 48,46 L20.665,46 L14.076,27 L24.71,27 L27.98,41 L30.02,41 L26.76,27 L40.24,27 L36.97,41 L39.03,41 Z" id="Path" fill="#95A5A5"/>
            <path d="M20,56 C17.2385763,56 15,53.7614237 15,51 C15,48.2385763 17.2385763,46 20,46 C22.7614237,46 25,48.2385763 25,51 C24.9966939,53.7600532 22.7600532,55.9966939 20,56 Z M20,48 C18.3431458,48 17,49.3431458 17,51 C17,52.6568542 18.3431458,54 20,54 C21.6568542,54 23,52.6568542 23,51 C23,49.3431458 21.6568542,48 20,48 Z" id="Shape" fill="#393F4A" fill-rule="nonzero"/>
            <path d="M48,56 C45.2385763,56 43,53.7614237 43,51 C43,48.2385763 45.2385763,46 48,46 C50.7614237,46 53,48.2385763 53,51 C52.9966939,53.7600532 50.7600532,55.9966939 48,56 Z M48,48 C46.3431458,48 45,49.3431458 45,51 C45,52.6568542 46.3431458,54 48,54 C49.6568542,54 51,52.6568542 51,51 C51,49.3431458 49.6568542,48 48,48 Z" id="Shape" fill="#393F4A" fill-rule="nonzero"/>
            <circle id="Oval" fill="#ECF0F1" cx="20" cy="51" r="1"/>
            <circle id="Oval" fill="#ECF0F1" cx="48" cy="51" r="1"/>
            <path d="M40,50 L28,50 C27.4477153,50 27,50.4477153 27,51 C27,51.5522847 27.4477153,52 28,52 L40,52 C40.5522847,52 41,51.5522847 41,51 C41,50.4477153 40.5522847,50 40,50 Z" id="Path" fill="#7F8C8D"/>
            <circle id="Oval" fill="#24AE5F" cx="50" cy="13" r="9"/>
            <path d="M54,12 L51,12 L51,9 C51,8.44771525 50.5522847,8 50,8 C49.4477153,8 49,8.44771525 49,9 L49,12 L46,12 C45.4477153,12 45,12.4477153 45,13 C45,13.5522847 45.4477153,14 46,14 L49,14 L49,17 C49,17.5522847 49.4477153,18 50,18 C50.5522847,18 51,17.5522847 51,17 L51,14 L54,14 C54.5522847,14 55,13.5522847 55,13 C55,12.4477153 54.5522847,12 54,12 Z" id="Path" fill="#FFFFFF"/>
        </g>
    </g>
</svg>
